HIERARCHY
ROOT Hips
{
	OFFSET 0.00000 0.00000 0.00000
	CHANNELS 6 Xposition Yposition Zposition Zrotation Yrotation Xrotation 
	JOINT LHipJoint
	{
		OFFSET 0 0 0
		CHANNELS 3 Zrotation Yrotation Xrotation
		JOINT LeftUpLeg
		{
			OFFSET 1.62964 -1.40469 0.78906
			CHANNELS 3 Zrotation Yrotation Xrotation
			JOINT LeftLeg
			{
				OFFSET 2.29640 -6.30932 0.00000
				CHANNELS 3 Zrotation Yrotation Xrotation
				JOINT LeftFoot
				{
					OFFSET 2.29451 -6.30412 0.00000
					CHANNELS 3 Zrotation Yrotation Xrotation
					JOINT LeftToeBase
					{
						OFFSET 0.03611 -0.09921 1.56387
						CHANNELS 3 Zrotation Yrotation Xrotation
						End Site
						{
							OFFSET 0.00000 -0.00000 0.80291
						}
					}
				}
			}
		}
	}
	JOINT RHipJoint
	{
		OFFSET 0 0 0
		CHANNELS 3 Zrotation Yrotation Xrotation
		JOINT RightUpLeg
		{
			OFFSET -1.73712 -1.40469 0.78906
			CHANNELS 3 Zrotation Yrotation Xrotation
			JOINT RightLeg
			{
				OFFSET -2.28137 -6.26801 0.00000
				CHANNELS 3 Zrotation Yrotation Xrotation
				JOINT RightFoot
				{
					OFFSET -2.28681 -6.28298 0.00000
					CHANNELS 3 Zrotation Yrotation Xrotation
					JOINT RightToeBase
					{
						OFFSET -0.15927 -0.43759 1.61103
						CHANNELS 3 Zrotation Yrotation Xrotation
						End Site
						{
							OFFSET -0.00000 -0.00000 0.84630
						}
					}
				}
			}
		}
	}
	JOINT LowerBack
	{
		OFFSET 0 0 0
		CHANNELS 3 Zrotation Yrotation Xrotation
		JOINT Spine
		{
			OFFSET -0.04227 2.04338 -0.00225
			CHANNELS 3 Zrotation Yrotation Xrotation
			JOINT Spine1
			{
				OFFSET -0.02148 2.04482 -0.04273
				CHANNELS 3 Zrotation Yrotation Xrotation
				JOINT Neck
				{
					OFFSET 0 0 0
					CHANNELS 3 Zrotation Yrotation Xrotation
					JOINT Neck1
					{
						OFFSET 0.09180 1.44629 0.19359
						CHANNELS 3 Zrotation Yrotation Xrotation
						JOINT Head
						{
							OFFSET 0.00887 1.40645 0.14750
							CHANNELS 3 Zrotation Yrotation Xrotation
							End Site
							{
								OFFSET -0.00669 1.50671 0.03707
							}
						}
					}
				}
				JOINT LeftShoulder
				{
					OFFSET 0 0 0
					CHANNELS 3 Zrotation Yrotation Xrotation
					JOINT LeftArm
					{
						OFFSET 2.17674 1.86763 -0.06520
						CHANNELS 3 Zrotation Yrotation Xrotation
						JOINT LeftForeArm
						{
							OFFSET 4.65776 -0.00000 0.00000
							CHANNELS 3 Zrotation Yrotation Xrotation
							JOINT LeftHand
							{
								OFFSET 3.55539 -0.00000 0.00000
								CHANNELS 3 Zrotation Yrotation Xrotation
								JOINT LeftFingerBase
								{
									OFFSET 0 0 0
									CHANNELS 3 Zrotation Yrotation Xrotation
									JOINT LeftHandIndex1
									{
										OFFSET 0.70726 -0.00000 0.00000
										CHANNELS 3 Zrotation Yrotation Xrotation
										End Site
										{
											OFFSET 0.57022 -0.00000 0.00000
										}
									}
								}
								JOINT LThumb
								{
									OFFSET 0 0 0
									CHANNELS 3 Zrotation Yrotation Xrotation
									End Site
									{
										OFFSET 0.57892 -0.00000 0.57892
									}
								}
							}
						}
					}
				}
				JOINT RightShoulder
				{
					OFFSET 0 0 0
					CHANNELS 3 Zrotation Yrotation Xrotation
					JOINT RightArm
					{
						OFFSET -2.80694 1.55459 -0.32496
						CHANNELS 3 Zrotation Yrotation Xrotation
						JOINT RightForeArm
						{
							OFFSET -4.71925 -0.00000 -0.00000
							CHANNELS 3 Zrotation Yrotation Xrotation
							JOINT RightHand
							{
								OFFSET -3.56990 -0.00000 0.00000
								CHANNELS 3 Zrotation Yrotation Xrotation
								JOINT RightFingerBase
								{
									OFFSET 0 0 0
									CHANNELS 3 Zrotation Yrotation Xrotation
									JOINT RightHandIndex1
									{
										OFFSET -0.50776 -0.00000 0.00000
										CHANNELS 3 Zrotation Yrotation Xrotation
										End Site
										{
											OFFSET -0.40937 -0.00000 0.00000
										}
									}
								}
								JOINT RThumb
								{
									OFFSET 0 0 0
									CHANNELS 3 Zrotation Yrotation Xrotation
									End Site
									{
										OFFSET -0.41562 -0.00000 0.41562
									}
								}
							}
						}
					}
				}
			}
		}
	}
}
MOTION
Frames: 9
Frame Time: .0083333
8.3887 16.2858 31.4418 0 0 0 0 0 0 -21 0 0 0 0 0 0 0 0 0 0 0 0 0 0 21 0 0 0 0 0 0 0 0 0 0 0 0 0 0 0 0 0 0 0 0 0 0 -16 0 0 21 0 0 11 0 0 0 -8 0 0 0 0 0 0 0 0 0 0 0 0 0 0 0 0 0 0 0 0 8 0 0 0 0 0 0 0 0 0 0 0 0 0 0 0 0 0
8.3887 16.2858 31.4418 178.5900 -0.2157 -152.6870 0.0000 0.0000 0.0000 -16.1981 -18.5433 -19.9420 0.2366 3.1306 8.6425 0.3183 1.7932 -11.4665 5.6024 -14.0317 -43.3644 0.0000 0.0000 0.0000 18.2723 14.0200 -20.7648 -0.1228 -2.2589 6.2217 -1.1108 -2.5649 -20.9857 -3.8441 11.9500 -35.5552 -6.3765 -1.1915 -30.1915 -0.6356 -0.1908 -2.1553 2.6087 -0.7958 13.4089 -1.9169 -3.0188 -8.1062 5.2603 -4.5262 9.1821 1.6436 -2.0689 4.2380 -0.0000 0.0000 0.0000 -86.2022 2.5995 8.0404 8.4484 -14.2771 -1.0600 -0.0000 -0.0000 14.9203 19.6273 -8.2182 -2.9182 -7.1250 0.0000 -0.0000 -5.2321 21.2772 2.9891 -0.0000 0.0000 0.0000 91.9645 -6.0960 3.9279 -15.9347 25.4321 -3.6179 0.0000 0.0000 6.0589 -14.5632 -53.5107 11.7976 7.1250 -0.0000 -0.0000 67.8944 -76.8581 -54.9152
8.3927 16.2850 31.4428 178.5290 -0.2423 -152.6470 0.0000 0.0000 0.0000 -16.2266 -18.5881 -19.9941 0.2372 3.1345 8.6534 0.3190 1.7585 -11.4584 5.5304 -13.9573 -43.0665 0.0000 0.0000 0.0000 18.2072 14.0535 -20.7911 -0.1223 -2.2544 6.2094 -1.1040 -2.6606 -20.9717 -3.8642 11.9775 -35.6523 -6.4471 -1.2017 -30.2278 -0.6704 -0.1722 -2.1397 2.6155 -0.7919 13.4398 -1.7535 -3.1373 -7.9405 5.2688 -4.6854 8.8224 1.6142 -2.1480 4.1034 0.0000 0.0000 0.0000 -86.1898 2.4999 7.4345 8.3787 -14.1649 -1.0429 -0.0000 -0.0000 15.4261 19.4628 -8.6057 -3.0269 -7.1250 0.0000 -0.0000 -5.3510 20.8786 3.1060 0.0000 0.0000 0.0000 91.9682 -6.0300 3.7785 -15.8596 25.3300 -3.5857 0.0000 0.0000 6.1606 -15.7300 -53.2885 12.7234 7.1250 -0.0000 -0.0000 66.5714 -77.2572 -54.1186
8.3969 16.2865 31.4447 178.5180 -0.2591 -152.6000 0.0000 0.0000 0.0000 -16.2009 -18.5803 -20.0289 0.2322 3.1012 8.5606 0.3105 1.7800 -11.3290 5.6133 -14.0428 -43.4092 0.0000 0.0000 0.0000 18.1760 14.1788 -20.8204 -0.1234 -2.2643 6.2367 -1.1061 -2.7531 -21.0356 -3.8941 12.0181 -35.7961 -6.4682 -1.1916 -30.2605 -0.6919 -0.1455 -2.1270 2.6135 -0.7814 13.4661 -2.0892 -3.1055 -7.3057 5.8144 -4.6156 7.6981 2.0557 -2.1402 4.0659 0.0000 0.0000 0.0000 -86.1388 2.4348 7.2099 8.3489 -14.1168 -1.0356 -0.0000 -0.0000 15.6688 19.3143 -8.9500 -3.1209 -7.1250 0.0000 -0.0000 -5.4584 20.5253 3.2125 0.0000 0.0000 0.0000 91.9634 -6.0231 3.7615 -15.8477 25.3137 -3.5806 0.0000 0.0000 6.1337 -16.1750 -53.2789 13.0884 7.1250 -0.0000 -0.0000 66.3882 -77.4300 -54.1321
8.3983 16.2867 31.4466 178.5220 -0.2328 -152.5700 0.0000 0.0000 0.0000 -16.2051 -18.4662 -20.1372 0.2341 3.1141 8.5966 0.3095 1.7045 -11.2716 5.7000 -14.1312 -43.7655 0.0000 0.0000 0.0000 18.1179 14.3362 -20.8240 -0.1248 -2.2774 6.2730 -1.1163 -2.6999 -21.1001 -3.7839 11.8672 -35.2637 -6.4374 -1.1416 -30.2642 -0.7170 -0.0898 -2.1378 2.5912 -0.7545 13.4506 -2.0250 -3.1290 -7.4917 5.6912 -4.6582 7.9776 1.9986 -2.1585 4.1980 0.0000 -0.0000 0.0000 -86.0819 2.5260 7.5510 8.4094 -14.2143 -1.0504 -0.0000 -0.0000 15.3395 19.3490 -8.8899 -3.1062 -7.1250 0.0000 -0.0000 -5.4333 20.5864 3.1901 0.0000 -0.0000 0.0000 91.9290 -6.1572 3.8827 -15.9104 25.3990 -3.6074 0.0000 0.0000 5.9834 -15.8546 -53.3159 12.8304 7.1250 -0.0000 -0.0000 66.6506 -77.3134 -54.2511
8.4014 16.2836 31.4472 178.6050 -0.2251 -152.5940 0.0000 0.0000 0.0000 -16.1118 -18.2909 -20.2029 0.2369 3.1325 8.6477 0.3137 1.5760 -11.2739 5.6738 -14.1046 -43.6579 0.0000 0.0000 0.0000 18.2012 14.4643 -20.7486 -0.1240 -2.2701 6.2528 -1.1072 -2.7362 -21.0374 -3.7467 11.8155 -35.0822 -6.3610 -1.0880 -30.2274 -0.7021 -0.0520 -2.1587 2.5816 -0.7321 13.4084 -1.9695 -3.1308 -7.6160 5.5154 -4.6684 8.3042 1.9276 -2.1645 4.3322 0.0000 -0.0000 0.0000 -86.0193 2.7325 8.2641 8.5263 -14.4024 -1.0793 -0.0000 -0.0000 14.5373 19.5988 -8.6885 -3.0788 -7.1250 0.0000 -0.0000 -5.2531 20.7832 3.0600 0.0000 -0.0000 0.0000 91.9013 -6.3268 3.9829 -15.9704 25.4805 -3.6332 0.0000 0.0000 5.8654 -15.7129 -53.3132 12.7132 7.1250 -0.0000 -0.0000 66.6840 -77.2570 -54.2222
8.4072 16.2819 31.4465 178.7730 -0.3127 -152.6290 0.0000 0.0000 0.0000 -15.8676 -18.1661 -20.2387 0.2378 3.1386 8.6649 0.3154 1.4863 -11.2561 5.6480 -14.0783 -43.5522 0.0000 0.0000 0.0000 18.4378 14.5965 -20.6324 -0.1215 -2.2472 6.1893 -1.0935 -2.9653 -21.0284 -3.7790 11.8604 -35.2399 -6.2271 -1.0587 -30.2132 -0.6514 -0.0606 -2.1491 2.5618 -0.7275 13.4167 -2.3610 -3.0019 -7.1187 6.1308 -4.4954 7.7895 2.2242 -2.0818 4.0770 -0.0000 0.0000 0.0000 -85.9604 2.7754 8.6148 8.5741 -14.4792 -1.0912 -0.0000 -0.0000 14.1184 19.7839 -8.7970 -3.1487 -7.1250 0.0000 -0.0000 -5.1202 20.6574 2.9965 -0.0000 0.0000 0.0000 91.9211 -6.3777 3.9622 -15.9747 25.4863 -3.6351 0.0000 0.0000 5.9523 -15.7199 -53.3739 12.7287 7.1250 -0.0000 -0.0000 66.9457 -77.2755 -54.4833
8.4095 16.2820 31.4445 178.8430 -0.3895 -152.6610 0.0000 0.0000 0.0000 -15.7663 -18.1985 -20.1762 0.2365 3.1297 8.6402 0.3095 1.6053 -11.2196 5.7787 -14.2104 -44.0871 0.0000 0.0000 0.0000 18.5765 14.5589 -20.5716 -0.1194 -2.2276 6.1351 -1.0873 -3.1192 -21.0512 -3.8856 12.0067 -35.7555 -6.1227 -1.0242 -30.1805 -0.6637 -0.0476 -2.1446 2.4982 -0.7138 13.4081 -2.3290 -3.0156 -7.5211 6.3092 -4.5724 8.5120 2.0395 -2.0793 3.9726 -0.0000 0.0000 0.0000 -85.8975 2.7853 8.7090 8.6168 -14.5476 -1.1019 -0.0000 -0.0000 13.9767 19.8003 -8.8801 -3.1810 -7.1250 0.0000 -0.0000 -5.1088 20.5688 3.0000 -0.0000 0.0000 0.0000 91.9764 -6.4578 3.9184 -15.9912 25.5087 -3.6422 0.0000 0.0000 6.0252 -15.4209 -53.3569 12.4798 7.1250 -0.0000 -0.0000 66.9663 -77.1537 -54.3731
8.4103 16.2828 31.4447 178.7830 -0.4110 -152.6570 0.0000 0.0000 0.0000 -15.8385 -18.2700 -20.1762 0.2383 3.1416 8.6731 0.3041 1.7408 -11.2019 5.9612 -14.3906 -44.8257 0.0000 0.0000 0.0000 18.5378 14.4236 -20.6152 -0.1186 -2.2201 6.1144 -1.0865 -3.0906 -21.0293 -3.9451 12.0870 -36.0406 -6.1442 -0.9942 -30.1189 -0.7104 -0.0107 -2.2017 2.4736 -0.6974 13.3111 -2.5031 -2.9655 -7.5940 6.6073 -4.5368 8.6830 2.1592 -2.0527 4.0459 -0.0000 -0.0000 0.0000 -85.8283 2.9355 9.0372 8.6970 -14.6763 -1.1221 -0.0000 -0.0000 13.6705 19.9113 -8.8089 -3.1749 -7.1250 0.0000 -0.0000 -5.0285 20.6370 2.9448 -0.0000 -0.0000 0.0000 92.0065 -6.6554 3.8950 -16.0506 25.5893 -3.6678 0.0000 0.0000 5.8827 -15.2255 -53.4834 12.3386 7.1250 -0.0000 -0.0000 67.5718 -77.1096 -54.8855
